<svg xmlns="http://www.w3.org/2000/svg" viewBox="0 0 100 100">
  <defs>
    <linearGradient id="grad" x1="0%" y1="0%" x2="100%" y2="100%">
      <stop offset="0%" style="stop-color:#6366f1;stop-opacity:1" />
      <stop offset="50%" style="stop-color:#8b5cf6;stop-opacity:1" />
      <stop offset="100%" style="stop-color:#3b82f6;stop-opacity:1" />
    </linearGradient>
  </defs>
  
  <!-- Background circle -->
  <circle cx="50" cy="50" r="48" fill="url(#grad)" opacity="0.15"/>
  
  <!-- Headphones -->
  <path d="M 50 25 C 35 25, 25 35, 25 50 L 25 60 Q 25 65, 30 65 L 35 65 Q 40 65, 40 60 L 40 55 Q 40 50, 35 50 L 30 50 L 30 50 C 30 37, 38 30, 50 30 C 62 30, 70 37, 70 50 L 70 50 L 65 50 Q 60 50, 60 55 L 60 60 Q 60 65, 65 65 L 70 65 Q 75 65, 75 60 L 75 50 C 75 35, 65 25, 50 25 Z" 
        fill="url(#grad)" stroke="url(#grad)" stroke-width="2"/>
  
  <!-- Sound waves -->
  <path d="M 15 40 Q 10 45, 15 50" stroke="url(#grad)" stroke-width="2" fill="none" opacity="0.6"/>
  <path d="M 85 40 Q 90 45, 85 50" stroke="url(#grad)" stroke-width="2" fill="none" opacity="0.6"/>
  <path d="M 10 35 Q 5 45, 10 55" stroke="url(#grad)" stroke-width="2" fill="none" opacity="0.4"/>
  <path d="M 90 35 Q 95 45, 90 55" stroke="url(#grad)" stroke-width="2" fill="none" opacity="0.4"/>
</svg>
